<?xml version="1.0" standalone="no"?>
<!DOCTYPE svg PUBLIC "-//W3C//DTD SVG 20010904//EN"
 "http://www.w3.org/TR/2001/REC-SVG-20010904/DTD/svg10.dtd">
<svg version="1.0" xmlns="http://www.w3.org/2000/svg"
 width="500.000000pt" height="500.000000pt" viewBox="0 0 500.000000 500.000000"
 preserveAspectRatio="xMidYMid meet">

<g transform="translate(0.000000,500.000000) scale(0.100000,-0.100000)"
fill="#000000" stroke="none">
<path d="M595 3306 c-59 -27 -118 -88 -135 -141 -19 -58 -8 -160 24 -223 l27
-53 -44 -49 c-55 -61 -92 -151 -108 -262 -10 -73 -9 -94 6 -154 26 -103 63
-172 130 -240 90 -91 132 -104 340 -104 208 0 250 13 341 104 116 117 163 271
131 430 -20 95 -53 168 -106 228 l-39 44 29 60 c33 69 39 167 14 228 -25 59
-81 113 -141 136 -48 17 -77 20 -237 19 -168 0 -186 -2 -232 -23z m414 -129
c13 -6 33 -24 45 -40 18 -25 19 -32 8 -83 -17 -82 -21 -85 -93 -63 -79 25
-189 25 -268 0 l-62 -19 -16 24 c-22 35 -29 110 -12 141 8 14 28 32 44 39 40
18 320 19 354 1z"/>
<path d="M3434 3069 c-18 -5 -48 -27 -68 -49 -35 -39 -36 -42 -36 -119 0 -98
4 -103 145 -199 93 -63 100 -70 103 -104 4 -44 -18 -68 -62 -68 -39 0 -53 13
-58 55 l-3 30 -70 0 -70 0 2 -38 c4 -59 31 -105 79 -133 35 -21 56 -25 118
-25 135 0 206 61 206 177 0 80 -23 114 -115 169 -106 65 -145 101 -145 135 0
35 23 60 55 60 42 0 54 -11 61 -56 l6 -44 53 0 c74 0 85 6 85 45 0 40 -30 114
-56 137 -40 34 -157 48 -230 27z"/>
<path d="M3907 3066 c-46 -17 -73 -40 -96 -81 -13 -25 -16 -63 -16 -235 l0
-205 27 -41 c37 -58 95 -84 184 -84 97 0 150 27 183 94 23 45 25 63 27 195 4
297 -29 360 -195 368 -49 2 -90 -2 -114 -11z m152 -132 c19 -25 21 -40 21
-191 0 -161 0 -164 -25 -188 -30 -31 -77 -33 -105 -5 -18 18 -20 33 -20 193 0
201 5 217 70 217 30 0 43 -6 59 -26z"/>
<path d="M1500 2750 l0 -321 158 3 157 3 0 55 0 55 -92 3 -93 3 0 69 0 70 81
0 80 0 -3 53 -3 52 -75 5 -75 5 -3 72 -3 72 93 3 93 3 0 55 0 55 -157 3 -158
3 0 -321z"/>
<path d="M1875 3048 c-2 -13 -4 -156 -2 -318 l2 -295 63 -3 62 -3 0 181 c0 99
4 180 8 180 5 0 16 -24 26 -52 9 -29 30 -87 45 -128 27 -72 29 -75 63 -78 l35
-3 38 103 c63 172 59 173 65 -22 l5 -175 63 -3 62 -3 0 321 0 320 -78 0 -78 0
-49 -147 c-27 -82 -52 -152 -55 -156 -6 -7 -24 38 -91 236 l-23 67 -78 0 c-72
0 -78 -2 -83 -22z"/>
<path d="M2492 2753 l3 -318 163 -3 162 -2 0 60 0 60 -95 0 -95 0 0 70 0 70
74 0 c84 0 94 9 81 76 l-6 34 -74 0 -75 0 0 75 0 75 95 0 95 0 0 60 0 60 -165
0 -165 0 2 -317z"/>
<path d="M2880 2750 l0 -320 65 0 c45 0 65 4 66 13 0 6 1 55 2 107 2 85 4 95
20 95 14 0 28 -23 56 -90 21 -49 41 -98 44 -107 5 -15 19 -18 75 -18 38 0 71
3 75 6 3 4 -11 41 -32 83 -69 139 -68 137 -33 174 40 42 55 98 50 188 -8 155
-57 188 -275 189 l-113 0 0 -320z m226 186 c16 -12 19 -27 19 -84 0 -85 -12
-102 -71 -102 l-44 0 0 100 0 100 38 0 c21 0 47 -6 58 -14z"/>
<path d="M4290 2750 l0 -321 63 3 62 3 5 170 c3 111 8 163 14 150 5 -11 31
-74 58 -140 85 -207 68 -186 141 -183 l62 3 -2 310 c-1 171 -2 313 -3 318 0 4
-30 7 -66 7 l-66 0 3 -170 c2 -94 3 -170 2 -170 -5 0 -39 81 -90 210 l-49 125
-67 3 -67 3 0 -321z"/>
<path d="M3177 2193 c-4 -3 -7 -11 -7 -17 0 -6 5 -5 12 2 6 6 9 14 7 17 -3 3
-9 2 -12 -2z"/>
</g>
</svg>
